<!-- Generated by IcoMoon.io -->
<svg version="1.1" xmlns="http://www.w3.org/2000/svg" width="32" height="32" viewBox="0 0 32 32">
<title>google-plus3</title>
<path d="M16 1c-8.285 0-15 6.715-15 15s6.715 15 15 15 15-6.715 15-15-6.715-15-15-15zM12.25 23.5c-4.148 0-7.5-3.352-7.5-7.5s3.352-7.5 7.5-7.5c2.027 0 3.721 0.738 5.027 1.963l-2.039 1.957c-0.557-0.533-1.529-1.154-2.988-1.154-2.56 0-4.652 2.121-4.652 4.734s2.092 4.734 4.652 4.734c2.971 0 4.084-2.133 4.254-3.234h-4.254v-2.572h7.084c0.065 0.375 0.117 0.75 0.117 1.242 0 4.289-2.871 7.33-7.201 7.33zM25.375 16v1.875h-1.875v-1.875h-1.875v-1.875h1.875v-1.875h1.875v1.875h1.875v1.875h-1.875z"></path>
</svg>
